bicep_curl
version=1
nRows=497
nColumns=3
inDegrees=yes

# SIMM Motion File Header:
name bicep_curl
datacolumns 3
datarows 497
otherdata 1
range 0.0000 0.4960
endheader
time	/jointset/r_shoulder/r_shoulder_elev/value	/jointset/r_elbow/r_elbow_flex/value
0.0000	0.0000	104.8600
0.0010	0.0000	104.7733
0.0020	0.0000	104.6868
0.0030	0.0000	104.6003
0.0040	0.0000	104.5139
0.0050	0.0000	104.4277
0.0060	0.0000	104.3416
0.0070	0.0000	104.2555
0.0080	0.0000	104.1696
0.0090	0.0000	104.0838
0.0100	0.0000	103.9980
0.0110	0.0000	103.9124
0.0120	0.0000	103.8269
0.0130	0.0000	103.7415
0.0140	0.0000	103.6562
0.0150	0.0000	103.5710
0.0160	0.0000	103.4860
0.0170	0.0000	103.4010
0.0180	0.0000	103.3161
0.0190	0.0000	103.2313
0.0200	0.0000	103.1467
0.0210	0.0000	103.0621
0.0220	0.0000	102.9777
0.0230	0.0000	102.8933
0.0240	0.0000	102.8091
0.0250	0.0000	102.7250
0.0260	0.0000	102.6410
0.0270	0.0000	102.5570
0.0280	0.0000	102.4732
0.0290	0.0000	102.3895
0.0300	0.0000	102.3059
0.0310	0.0000	102.2224
0.0320	0.0000	102.1390
0.0330	0.0000	102.0558
0.0340	0.0000	101.9726
0.0350	0.0000	101.8895
0.0360	0.0000	101.8066
0.0370	0.0000	101.7237
0.0380	0.0000	101.6409
0.0390	0.0000	101.5583
0.0400	0.0000	101.4758
0.0410	0.0000	101.3933
0.0420	0.0000	101.3110
0.0430	0.0000	101.2288
0.0440	0.0000	101.1467
0.0450	0.0000	101.0647
0.0460	0.0000	100.9827
0.0470	0.0000	100.9009
0.0480	0.0000	100.8193
0.0490	0.0000	100.7377
0.0500	0.0000	100.6562
0.0510	0.0000	100.5748
0.0520	0.0000	100.4935
0.0530	0.0000	100.4124
0.0540	0.0000	100.3313
0.0550	0.0000	100.2504
0.0560	0.0000	100.1695
0.0570	0.0000	100.0888
0.0580	0.0000	100.0082
0.0590	0.0000	99.9276
0.0600	0.0000	99.8472
0.0610	0.0000	99.7669
0.0620	0.0000	99.6867
0.0630	0.0000	99.6066
0.0640	0.0000	99.5266
0.0650	0.0000	99.4467
0.0660	0.0000	99.3669
0.0670	0.0000	99.2872
0.0680	0.0000	99.2077
0.0690	0.0000	99.1282
0.0700	0.0000	99.0488
0.0710	0.0000	98.9696
0.0720	0.0000	98.8904
0.0730	0.0000	98.8114
0.0740	0.0000	98.7325
0.0750	0.0000	98.6536
0.0760	0.0000	98.5749
0.0770	0.0000	98.4963
0.0780	0.0000	98.4178
0.0790	0.0000	98.3394
0.0800	0.0000	98.2611
0.0810	0.0000	98.1829
0.0820	0.0000	98.1048
0.0830	0.0000	98.0268
0.0840	0.0000	97.9489
0.0850	0.0000	97.8712
0.0860	0.0000	97.7935
0.0870	0.0000	97.7159
0.0880	0.0000	97.6385
0.0890	0.0000	97.5611
0.0900	0.0000	97.4839
0.0910	0.0000	97.4068
0.0920	0.0000	97.3297
0.0930	0.0000	97.2528
0.0940	0.0000	97.1760
0.0950	0.0000	97.0993
0.0960	0.0000	97.0227
0.0970	0.0000	96.9462
0.0980	0.0000	96.8698
0.0990	0.0000	96.7935
0.1000	0.0000	96.7173
0.1010	0.0000	96.6412
0.1020	0.0000	96.5653
0.1030	0.0000	96.4894
0.1040	0.0000	96.4136
0.1050	0.0000	96.3380
0.1060	0.0000	96.2624
0.1070	0.0000	96.1870
0.1080	0.0000	96.1117
0.1090	0.0000	96.0364
0.1100	0.0000	95.9613
0.1110	0.0000	95.8863
0.1120	0.0000	95.8114
0.1130	0.0000	95.7366
0.1140	0.0000	95.6619
0.1150	0.0000	95.5873
0.1160	0.0000	95.5128
0.1170	0.0000	95.4384
0.1180	0.0000	95.3642
0.1190	0.0000	95.2900
0.1200	0.0000	95.2159
0.1210	0.0000	95.1420
0.1220	0.0000	95.0681
0.1230	0.0000	94.9944
0.1240	0.0000	94.9207
0.1250	0.0000	94.8472
0.1260	0.0000	94.7738
0.1270	0.0000	94.7005
0.1280	0.0000	94.6273
0.1290	0.0000	94.5541
0.1300	0.0000	94.4811
0.1310	0.0000	94.4083
0.1320	0.0000	94.3355
0.1330	0.0000	94.2628
0.1340	0.0000	94.1902
0.1350	0.0000	94.1177
0.1360	0.0000	94.0454
0.1370	0.0000	93.9731
0.1380	0.0000	93.9009
0.1390	0.0000	93.8289
0.1400	0.0000	93.7570
0.1410	0.0000	93.6851
0.1420	0.0000	93.6134
0.1430	0.0000	93.5418
0.1440	0.0000	93.4702
0.1450	0.0000	93.3988
0.1460	0.0000	93.3275
0.1470	0.0000	93.2563
0.1480	0.0000	93.1852
0.1490	0.0000	93.1142
0.1500	0.0000	93.0434
0.1510	0.0000	92.9726
0.1520	0.0000	92.9019
0.1530	0.0000	92.8313
0.1540	0.0000	92.7609
0.1550	0.0000	92.6905
0.1560	0.0000	92.6203
0.1570	0.0000	92.5501
0.1580	0.0000	92.4801
0.1590	0.0000	92.4102
0.1600	0.0000	92.3404
0.1610	0.0000	92.2706
0.1620	0.0000	92.2010
0.1630	0.0000	92.1315
0.1640	0.0000	92.0621
0.1650	0.0000	91.9928
0.1660	0.0000	91.9236
0.1670	0.0000	91.8546
0.1680	0.0000	91.7856
0.1690	0.0000	91.7167
0.1700	0.0000	91.6480
0.1710	0.0000	91.5793
0.1720	0.0000	91.5107
0.1730	0.0000	91.4423
0.1740	0.0000	91.3740
0.1750	0.0000	91.3057
0.1760	0.0000	91.2376
0.1770	0.0000	91.1696
0.1780	0.0000	91.1017
0.1790	0.0000	91.0339
0.1800	0.0000	90.9661
0.1810	0.0000	90.8986
0.1820	0.0000	90.8311
0.1830	0.0000	90.7637
0.1840	0.0000	90.6964
0.1850	0.0000	90.6292
0.1860	0.0000	90.5622
0.1870	0.0000	90.4952
0.1880	0.0000	90.4283
0.1890	0.0000	90.3616
0.1900	0.0000	90.2949
0.1910	0.0000	90.2284
0.1920	0.0000	90.1620
0.1930	0.0000	90.0956
0.1940	0.0000	90.0294
0.1950	0.0000	89.9633
0.1960	0.0000	89.8973
0.1970	0.0000	89.8314
0.1980	0.0000	89.7656
0.1990	0.0000	89.6999
0.2000	0.0000	89.6343
0.2010	0.0000	89.5689
0.2020	0.0000	89.5035
0.2030	0.0000	89.4382
0.2040	0.0000	89.3731
0.2050	0.0000	89.3080
0.2060	0.0000	89.2430
0.2070	0.0000	89.1782
0.2080	0.0000	89.1135
0.2090	0.0000	89.0488
0.2100	0.0000	88.9843
0.2110	0.0000	88.9199
0.2120	0.0000	88.8556
0.2130	0.0000	88.7914
0.2140	0.0000	88.7273
0.2150	0.0000	88.6633
0.2160	0.0000	88.5994
0.2170	0.0000	88.5356
0.2180	0.0000	88.4719
0.2190	0.0000	88.4084
0.2200	0.0000	88.3449
0.2210	0.0000	88.2815
0.2220	0.0000	88.2183
0.2230	0.0000	88.1551
0.2240	0.0000	88.0921
0.2250	0.0000	88.0292
0.2260	0.0000	87.9663
0.2270	0.0000	87.9036
0.2280	0.0000	87.8410
0.2290	0.0000	87.7785
0.2300	0.0000	87.7161
0.2310	0.0000	87.6538
0.2320	0.0000	87.5916
0.2330	0.0000	87.5295
0.2340	0.0000	87.4675
0.2350	0.0000	87.4056
0.2360	0.0000	87.3439
0.2370	0.0000	87.2822
0.2380	0.0000	87.2207
0.2390	0.0000	87.1592
0.2400	0.0000	87.0979
0.2410	0.0000	87.0366
0.2420	0.0000	86.9755
0.2430	0.0000	86.9145
0.2440	0.0000	86.8535
0.2450	0.0000	86.7927
0.2460	0.0000	86.7320
0.2470	0.0000	86.6714
0.2480	0.0000	86.6109
0.2490	0.0000	86.5505
0.2500	0.0000	86.4902
0.2510	0.0000	86.4301
0.2520	0.0000	86.3700
0.2530	0.0000	86.3100
0.2540	0.0000	86.2501
0.2550	0.0000	86.1904
0.2560	0.0000	86.1307
0.2570	0.0000	86.0712
0.2580	0.0000	86.0118
0.2590	0.0000	85.9524
0.2600	0.0000	85.8932
0.2610	0.0000	85.8341
0.2620	0.0000	85.7751
0.2630	0.0000	85.7162
0.2640	0.0000	85.6574
0.2650	0.0000	85.5987
0.2660	0.0000	85.5401
0.2670	0.0000	85.4816
0.2680	0.0000	85.4232
0.2690	0.0000	85.3649
0.2700	0.0000	85.3068
0.2710	0.0000	85.2487
0.2720	0.0000	85.1908
0.2730	0.0000	85.1329
0.2740	0.0000	85.0752
0.2750	0.0000	85.0175
0.2760	0.0000	84.9600
0.2770	0.0000	84.9026
0.2780	0.0000	84.8453
0.2790	0.0000	84.7880
0.2800	0.0000	84.7309
0.2810	0.0000	84.6739
0.2820	0.0000	84.6170
0.2830	0.0000	84.5603
0.2840	0.0000	84.5036
0.2850	0.0000	84.4470
0.2860	0.0000	84.3905
0.2870	0.0000	84.3342
0.2880	0.0000	84.2779
0.2890	0.0000	84.2217
0.2900	0.0000	84.1657
0.2910	0.0000	84.1098
0.2920	0.0000	84.0539
0.2930	0.0000	83.9982
0.2940	0.0000	83.9426
0.2950	0.0000	83.8871
0.2960	0.0000	83.8316
0.2970	0.0000	83.7763
0.2980	0.0000	83.7211
0.2990	0.0000	83.6660
0.3000	0.0000	83.6111
0.3010	0.0000	83.5562
0.3020	0.0000	83.5014
0.3030	0.0000	83.4467
0.3040	0.0000	83.3922
0.3050	0.0000	83.3377
0.3060	0.0000	83.2834
0.3070	0.0000	83.2291
0.3080	0.0000	83.1750
0.3090	0.0000	83.1209
0.3100	0.0000	83.0670
0.3110	0.0000	83.0132
0.3120	0.0000	82.9595
0.3130	0.0000	82.9059
0.3140	0.0000	82.8524
0.3150	0.0000	82.7990
0.3160	0.0000	82.7457
0.3170	0.0000	82.6925
0.3180	0.0000	82.6394
0.3190	0.0000	82.5864
0.3200	0.0000	82.5336
0.3210	0.0000	82.4808
0.3220	0.0000	82.4282
0.3230	0.0000	82.3756
0.3240	0.0000	82.3232
0.3250	0.0000	82.2708
0.3260	0.0000	82.2186
0.3270	0.0000	82.1665
0.3280	0.0000	82.1144
0.3290	0.0000	82.0625
0.3300	0.0000	82.0107
0.3310	0.0000	81.9590
0.3320	0.0000	81.9074
0.3330	0.0000	81.8559
0.3340	0.0000	81.8045
0.3350	0.0000	81.7533
0.3360	0.0000	81.7021
0.3370	0.0000	81.6510
0.3380	0.0000	81.6001
0.3390	0.0000	81.5492
0.3400	0.0000	81.4985
0.3410	0.0000	81.4478
0.3420	0.0000	81.3973
0.3430	0.0000	81.3469
0.3440	0.0000	81.2965
0.3450	0.0000	81.2463
0.3460	0.0000	81.1962
0.3470	0.0000	81.1462
0.3480	0.0000	81.0963
0.3490	0.0000	81.0465
0.3500	0.0000	80.9968
0.3510	0.0000	80.9472
0.3520	0.0000	80.8978
0.3530	0.0000	80.8484
0.3540	0.0000	80.7991
0.3550	0.0000	80.7500
0.3560	0.0000	80.7009
0.3570	0.0000	80.6520
0.3580	0.0000	80.6031
0.3590	0.0000	80.5544
0.3600	0.0000	80.5058
0.3610	0.0000	80.4572
0.3620	0.0000	80.4088
0.3630	0.0000	80.3605
0.3640	0.0000	80.3123
0.3650	0.0000	80.2642
0.3660	0.0000	80.2162
0.3670	0.0000	80.1683
0.3680	0.0000	80.1205
0.3690	0.0000	80.0729
0.3700	0.0000	80.0253
0.3710	0.0000	79.9778
0.3720	0.0000	79.9305
0.3730	0.0000	79.8832
0.3740	0.0000	79.8361
0.3750	0.0000	79.7890
0.3760	0.0000	79.7421
0.3770	0.0000	79.6953
0.3780	0.0000	79.6486
0.3790	0.0000	79.6019
0.3800	0.0000	79.5554
0.3810	0.0000	79.5090
0.3820	0.0000	79.4627
0.3830	0.0000	79.4165
0.3840	0.0000	79.3705
0.3850	0.0000	79.3245
0.3860	0.0000	79.2786
0.3870	0.0000	79.2328
0.3880	0.0000	79.1872
0.3890	0.0000	79.1416
0.3900	0.0000	79.0962
0.3910	0.0000	79.0508
0.3920	0.0000	79.0056
0.3930	0.0000	78.9605
0.3940	0.0000	78.9154
0.3950	0.0000	78.8705
0.3960	0.0000	78.8257
0.3970	0.0000	78.7810
0.3980	0.0000	78.7364
0.3990	0.0000	78.6919
0.4000	0.0000	78.6475
0.4010	0.0000	78.6032
0.4020	0.0000	78.5590
0.4030	0.0000	78.5150
0.4040	0.0000	78.4710
0.4050	0.0000	78.4271
0.4060	0.0000	78.3834
0.4070	0.0000	78.3397
0.4080	0.0000	78.2962
0.4090	0.0000	78.2528
0.4100	0.0000	78.2094
0.4110	0.0000	78.1662
0.4120	0.0000	78.1231
0.4130	0.0000	78.0801
0.4140	0.0000	78.0372
0.4150	0.0000	77.9944
0.4160	0.0000	77.9517
0.4170	0.0000	77.9091
0.4180	0.0000	77.8666
0.4190	0.0000	77.8242
0.4200	0.0000	77.7819
0.4210	0.0000	77.7398
0.4220	0.0000	77.6977
0.4230	0.0000	77.6558
0.4240	0.0000	77.6139
0.4250	0.0000	77.5722
0.4260	0.0000	77.5305
0.4270	0.0000	77.4890
0.4280	0.0000	77.4476
0.4290	0.0000	77.4063
0.4300	0.0000	77.3651
0.4310	0.0000	77.3240
0.4320	0.0000	77.2830
0.4330	0.0000	77.2421
0.4340	0.0000	77.2013
0.4350	0.0000	77.1606
0.4360	0.0000	77.1200
0.4370	0.0000	77.0796
0.4380	0.0000	77.0392
0.4390	0.0000	76.9989
0.4400	0.0000	76.9588
0.4410	0.0000	76.9187
0.4420	0.0000	76.8788
0.4430	0.0000	76.8390
0.4440	0.0000	76.7992
0.4450	0.0000	76.7596
0.4460	0.0000	76.7201
0.4470	0.0000	76.6807
0.4480	0.0000	76.6414
0.4490	0.0000	76.6022
0.4500	0.0000	76.5631
0.4510	0.0000	76.5241
0.4520	0.0000	76.4852
0.4530	0.0000	76.4465
0.4540	0.0000	76.4078
0.4550	0.0000	76.3692
0.4560	0.0000	76.3308
0.4570	0.0000	76.2924
0.4580	0.0000	76.2542
0.4590	0.0000	76.2160
0.4600	0.0000	76.1780
0.4610	0.0000	76.1401
0.4620	0.0000	76.1023
0.4630	0.0000	76.0646
0.4640	0.0000	76.0269
0.4650	0.0000	75.9894
0.4660	0.0000	75.9521
0.4670	0.0000	75.9148
0.4680	0.0000	75.8776
0.4690	0.0000	75.8405
0.4700	0.0000	75.8035
0.4710	0.0000	75.7667
0.4720	0.0000	75.7299
0.4730	0.0000	75.6932
0.4740	0.0000	75.6567
0.4750	0.0000	75.6203
0.4760	0.0000	75.5839
0.4770	0.0000	75.5477
0.4780	0.0000	75.5116
0.4790	0.0000	75.4755
0.4800	0.0000	75.4396
0.4810	0.0000	75.4038
0.4820	0.0000	75.3681
0.4830	0.0000	75.3325
0.4840	0.0000	75.2970
0.4850	0.0000	75.2617
0.4860	0.0000	75.2264
0.4870	0.0000	75.1912
0.4880	0.0000	75.1562
0.4890	0.0000	75.1212
0.4900	0.0000	75.0863
0.4910	0.0000	75.0516
0.4920	0.0000	75.0170
0.4930	0.0000	74.9824
0.4940	0.0000	74.9480
0.4950	0.0000	74.9137
0.4960	0.0000	74.8794
